<?xml version="1.0" standalone="no"?>
<!DOCTYPE svg PUBLIC "-//W3C//DTD SVG 1.1//EN" "http://www.w3.org/Graphics/SVG/1.1/DTD/svg11.dtd" >
<svg xmlns="http://www.w3.org/2000/svg" xmlns:xlink="http://www.w3.org/1999/xlink" version="1.1">
<metadata>
Created by FontForge 20170924 at Thu Jul 11 18:25:12 2019
 By www-data
Copyright \(c\) 2019 by Khurasan. All rights reserved.
</metadata>
<defs>
<font id="RealYoung" horiz-adv-x="686" >
  <font-face 
    font-family="Real Young"
    font-weight="400"
    font-stretch="normal"
    units-per-em="1000"
    panose-1="0 0 0 0 0 0 0 0 0 0"
    ascent="800"
    descent="-200"
    x-height="750"
    cap-height="751"
    bbox="-4 -108 751 861"
    underline-thickness="50"
    underline-position="-100"
    stemh="200"
    stemv="225"
    unicode-range="U+000D-02DA"
  />
<missing-glyph horiz-adv-x="282" 
 />
    <glyph glyph-name=".notdef" horiz-adv-x="282" 
 />
    <glyph glyph-name="NULL" horiz-adv-x="0" 
 />
    <glyph glyph-name="NULL" horiz-adv-x="0" 
 />
    <glyph glyph-name="CR" unicode="&#xd;" horiz-adv-x="282" 
 />
    <glyph glyph-name="space" unicode=" " horiz-adv-x="282" 
 />
    <glyph glyph-name="E" unicode="E" horiz-adv-x="627" 
d="M0 751h571v-200h-346v-76h269v-199h-269v-75h346v-119h-334v-12h334v-70h-571v667h319v23h-319v61z" />
    <glyph glyph-name="F" unicode="F" horiz-adv-x="597" 
d="M0 0v667h342v23h-342v61h545v-200h-322v-75h288v-200h-288v-194h-151v-12h151v-70h-223z" />
    <glyph glyph-name="G" unicode="G" horiz-adv-x="638" 
d="M-1 57v610h333v23h-333v61h572v-200h-348v-350h150v75h-92v199c96 0 193 0 290 -1v-392h-276v-12h276v-70h-508z" />
    <glyph glyph-name="H" unicode="H" horiz-adv-x="716" 
d="M1 751h223v-275h212v275h223v-669h-164v-12h164v-70h-223v276h-212v-276h-223v667h176v23h-176v61z" />
    <glyph glyph-name="I" unicode="I" horiz-adv-x="278" 
d="M-1 0v667h180v23h-180v61h225v-669h-161v-12h161v-70h-225z" />
    <glyph glyph-name="J" unicode="J" horiz-adv-x="629" 
d="M567 0h-568v201h344v466h166v23h-166v61h224v-669h-295v-12h295v-70z" />
    <glyph glyph-name="K" unicode="K" horiz-adv-x="689" 
d="M-1 751h224v-275h135l43 49v226h225v-325l-59 -50l59 -52v-242h-169v-12h169v-70h-225v228l-43 48h-135v-276h-224v667h166v23h-166v61z" />
    <glyph glyph-name="R" unicode="R" horiz-adv-x="709" 
d="M651 751v-400l-75 -62h-78l128 -207h-169v-12h176l42 -70h-246l-202 333v-333h-226v667h330v23h-330v61h650zM453 565h-226v-90h226v90z" />
    <glyph glyph-name="L" unicode="L" horiz-adv-x="628" 
d="M571 0h-571v667h162v23h-162v61h225v-550h346v-119h-317v-12h317v-70z" />
    <glyph glyph-name="Y" unicode="Y" horiz-adv-x="727" 
d="M665 276h-221v-194h-137v-12h137v-70h-224v276h-220v391h143v23h-143v61h223v-276h220v276h222v-475z" />
    <glyph glyph-name="O" unicode="O" 
d="M1 751h569l59 -65v-604h-176v-12h176v-70h-570l-58 57v610h303v23h-303v61zM226 201h180v350h-180v-350z" />
    <glyph glyph-name="U" unicode="U" horiz-adv-x="691" 
d="M404 751h224v-669h-174v-12h174v-70h-627v667h171v23h-171v61h224v-550h179v550z" />
    <glyph glyph-name="N" unicode="N" horiz-adv-x="707" 
d="M1 0v667h167v23h-167v61h226l196 -329v329h224v-669h-172v-12h172v-70h-235l-185 313v-313h-226z" />
    <glyph glyph-name="D" unicode="D" 
d="M-1 751h570l59 -66v-603h-349v-12h349v-11l-59 -59h-570v667h342v23h-342v61zM225 201h177l1 350h-178v-350z" />
    <glyph glyph-name="P" unicode="P" horiz-adv-x="712" 
d="M648 751v-400l-95 -73h-328v-196h-166v-12h166v-70h-224v667h312v23h-312v61h647zM454 566h-229v-90h229v90z" />
    <glyph glyph-name="M" unicode="M" horiz-adv-x="802" 
d="M1 0v667h200v23h-200v61h224l148 -249l147 249h224v-669h-152v-12h152v-70h-224v314l-93 -160h-105l-97 160v-314h-224z" />
    <glyph glyph-name="Q" unicode="Q" horiz-adv-x="685" 
d="M0 751h569l58 -64v-605h-175v-12h175v-141h-224v71h-346l-57 59v608h300v23h-300v61zM225 201h178v350h-178v-350z" />
    <glyph glyph-name="S" unicode="S" horiz-adv-x="654" 
d="M1 276v391h315v23h-315v61h590v-200h-366v-75c123 0 245 -1 367 -1v-393h-276v-12h276v-70h-591v201h365v75h-365z" />
    <glyph glyph-name="T" unicode="T" horiz-adv-x="733" 
d="M679 551h-228v-469h-157v-12h157v-70h-224v551h-227v116h339v23h-339v61h679v-200z" />
    <glyph glyph-name="V" unicode="V" horiz-adv-x="697" 
d="M404 751h226v-556l-88 -113h-160v-12h151l-54 -70h-325l-153 195v472h164v23h-164v61h225v-501l89 -105l89 105v501z" />
    <glyph glyph-name="W" unicode="W" horiz-adv-x="807" 
d="M1 0v667h167v23h-167v61h221v-312l98 160h105l96 -160v312h225v-669h-158v-12h158v-70h-225l-148 251l-151 -251h-221z" />
    <glyph glyph-name="X" unicode="X" horiz-adv-x="716" 
d="M382 476l45 49v226h225v-325l-59 -50l59 -52v-242h-136v-12h136v-70h-225v228l-44 48h-116l-45 -48v-228h-223v324l57 52l-57 50v241h138v23h-138v61h223v-226l45 -49h115z" />
    <glyph glyph-name="Z" unicode="Z" horiz-adv-x="646" 
d="M590 751c0 -133 -1 -224 1 -397l-366 -115v-38h365v-119h-240v-12h240v-70h-590v405l364 113v33h-363v116h308v23h-308v61h589z" />
    <glyph glyph-name="a" unicode="a" horiz-adv-x="713" 
d="M1 684l60 67h531l61 -67v-684h-225v276h-202v-276h-225v684zM226 475h202v75h-202v-75z" />
    <glyph glyph-name="b" unicode="b" horiz-adv-x="736" 
d="M0 750h681v-324l-58 -51l58 -51v-324h-681v750zM225 201h232v75h-232v-75zM225 476h232v74h-232v-74z" />
    <glyph glyph-name="c" unicode="c" horiz-adv-x="629" 
d="M0 751h572h1v-278h-200v77h-148v-350h148v78h200v-278h-1h-513l-59 57v694z" />
    <glyph glyph-name="d" unicode="d" 
d="M0 751h571l58 -67v-626l-58 -58h-571v751zM225 200h179l1 350h-180v-350z" />
    <glyph glyph-name="e" unicode="e" horiz-adv-x="627" 
d="M0 751h573v-201h-348v-75h270v-199h-270v-76h348v-200h-573v751z" />
    <glyph glyph-name="f" unicode="f" horiz-adv-x="597" 
d="M1 0v750h546v-200h-322v-74h288v-200h-288v-276h-224z" />
    <glyph glyph-name="g" unicode="g" horiz-adv-x="638" 
d="M0 57v694h573v-201h-348v-350h149v76h-93v199c97 0 195 0 292 -1v-474h-509z" />
    <glyph glyph-name="h" unicode="h" horiz-adv-x="716" 
d="M0 750h224v-274h211v274h224v-750h-224v276h-211v-276h-224v750z" />
    <glyph glyph-name="i" unicode="i" horiz-adv-x="278" 
d="M1 0v750h225v-750h-225z" />
    <glyph glyph-name="j" unicode="j" horiz-adv-x="629" 
d="M571 0h-571v201h346v549h225v-750z" />
    <glyph glyph-name="k" unicode="k" horiz-adv-x="689" 
d="M0 750h225v-274h134l44 49v225h225v-324l-58 -51l58 -51v-324h-225v227l-43 49h-135v-276h-225v750z" />
    <glyph glyph-name="l" unicode="l" horiz-adv-x="628" 
d="M572 0h-572v751h225v-551h347v-200z" />
    <glyph glyph-name="m" unicode="m" horiz-adv-x="802" 
d="M0 0v750h225l148 -248l148 248h224v-750h-224v313l-95 -160h-105l-96 160v-313h-225z" />
    <glyph glyph-name="n" unicode="n" horiz-adv-x="707" 
d="M0 0v751h224l197 -329v329h224v-751h-234l-187 312v-312h-224z" />
    <glyph glyph-name="o" unicode="o" 
d="M0 751h571l58 -66v-685h-571l-58 57v694zM225 200h180v350h-180v-350z" />
    <glyph glyph-name="p" unicode="p" horiz-adv-x="712" 
d="M650 750v-399l-96 -73h-328v-278h-225v750h649zM454 565h-228v-89h228v89z" />
    <glyph glyph-name="q" unicode="q" horiz-adv-x="685" 
d="M0 750h569l59 -64v-758h-224v72h-346l-58 58v692zM225 201h179v349h-179v-349z" />
    <glyph glyph-name="r" unicode="r" horiz-adv-x="709" 
d="M650 751v-400l-75 -62h-78l177 -289h-246l-203 333v-333h-225v751h650zM452 565h-227v-90h227v90z" />
    <glyph glyph-name="s" unicode="s" horiz-adv-x="654" 
d="M1 276v474h590v-200h-366v-74c123 0 245 -1 367 -1v-475h-591v201h366v75h-366z" />
    <glyph glyph-name="t" unicode="t" horiz-adv-x="733" 
d="M681 550h-229v-550h-223v550h-228v200h680v-200z" />
    <glyph glyph-name="u" unicode="u" horiz-adv-x="691" 
d="M405 751h225v-751h-629v751h225v-551h179v551z" />
    <glyph glyph-name="v" unicode="v" horiz-adv-x="697" 
d="M405 750h225v-557l-150 -193h-325l-154 193v557h224v-501l91 -105l89 104v502z" />
    <glyph glyph-name="w" unicode="w" horiz-adv-x="807" 
d="M0 0v750h222v-312l97 160h105l96 -160v312h225v-750h-225l-148 249l-150 -249h-222z" />
    <glyph glyph-name="x" unicode="x" horiz-adv-x="716" 
d="M384 476l45 49v225h226v-324l-59 -51l59 -51v-324h-226v227l-44 49h-116l-45 -49v-227h-223v324l57 51l-57 51v324h223v-225l45 -49h115z" />
    <glyph glyph-name="y" unicode="y" horiz-adv-x="727" 
d="M668 276h-222v-276h-225v276h-222v475h224v-276h221v276h224v-475z" />
    <glyph glyph-name="z" unicode="z" horiz-adv-x="646" 
d="M590 750c0 -134 -1 -224 2 -397l-367 -115v-37h365v-201h-589v404l364 114v32h-363v200h588z" />
    <glyph glyph-name="A" unicode="A" horiz-adv-x="713" 
d="M1 667h320v23h-314l53 61h532l61 -66v-603h-185v-12h185v-70h-226v276h-201v-276h-225v667zM226 475h201v76h-201v-76z" />
    <glyph glyph-name="ring" unicode="&#x2da;" horiz-adv-x="241" 
d="M0 751h180v-176h-180v176zM107 634v57h-35v-57h35z" />
    <glyph glyph-name="asterisk" unicode="*" horiz-adv-x="231" 
d="M63 714v37h54v-37l32 19l29 -45l-38 -24l38 -25l-29 -45l-32 20v-39h-54v39l-32 -20l-29 45l37 25l-37 24l29 45z" />
    <glyph glyph-name="quotesingle" unicode="'" horiz-adv-x="230" 
d="M0 573v178h147v-178h-147z" />
    <glyph glyph-name="comma" unicode="," horiz-adv-x="308" 
d="M242 156l-78 -176h-168l80 176h166z" />
    <glyph glyph-name="period" unicode="." horiz-adv-x="234" 
d="M1 -1v157h163v-157h-163z" />
    <glyph glyph-name="exclam" unicode="!" horiz-adv-x="287" 
d="M0 216v535h225v-535h-225zM0 0v159h225v-159h-225z" />
    <glyph glyph-name="at" unicode="@" horiz-adv-x="833" 
d="M-1 751h694l58 -52v-148v-276h-268v-44h-213v284h213v-39h44v75h-303v-351h527v-200h-693l-59 51v700z" />
    <glyph glyph-name="numbersign" unicode="#" horiz-adv-x="833" 
d="M110 540v113h225v-113h82v113h226v-113h97v-107h-97v-107h97v-107h-97v-120h-226v120h-82v-120h-225v120h-109v107h109v107h-109v107h109zM335 326h82v107h-82v-107z" />
    <glyph glyph-name="dollar" unicode="$" horiz-adv-x="663" 
d="M1 275v476h182v110h224v-110h184v-200h-366v-75h367v-476h-185v-108h-224v108h-182v200h365v75h-365z" />
    <glyph glyph-name="percent" unicode="%" horiz-adv-x="781" 
d="M280 493l116 259l245 -1l-211 -476h277v-275h-280v266l-119 -266h-246l211 476h-272v275h279v-258zM595 93v89h-55v-89h55zM168 568v90h-55v-90h55z" />
    <glyph glyph-name="slash" unicode="/" horiz-adv-x="644" 
d="M4 0l334 752l246 -1l-332 -751h-248z" />
    <glyph glyph-name="ampersand" unicode="&#x26;" horiz-adv-x="721" 
d="M-1 427v325h574v-199h-349v-75h136v-201h-136v-77h193v278h225v-478h-225v0h-418v325l58 50v0v0z" />
    <glyph glyph-name="parenleft" unicode="(" horiz-adv-x="403" 
d="M1 700l59 51h274v-200h-108v-351h108v-200h-275l-58 50v650z" />
    <glyph glyph-name="underscore" unicode="_" horiz-adv-x="712" 
d="M634 0h-635v200h635v-200z" />
    <glyph glyph-name="hyphen" unicode="-" horiz-adv-x="586" 
d="M493 275h-494v201h494v-201z" />
    <glyph glyph-name="plus" unicode="+" horiz-adv-x="682" 
d="M197 275h-197v201h197v197h199v-197h198v-201h-198v-196h-199v196z" />
    <glyph glyph-name="equal" unicode="=" horiz-adv-x="589" 
d="M494 388h-494v200h494v-200zM494 136h-494v200h494v-200z" />
    <glyph glyph-name="zero" unicode="0" horiz-adv-x="710" 
d="M-1 751h638v-751h-638v751zM224 551v-351h186v351h-186z" />
    <glyph glyph-name="one" unicode="1" horiz-adv-x="348" 
d="M-1 751h286v-751h-224v551h-62v200z" />
    <glyph glyph-name="two" unicode="2" horiz-adv-x="663" 
d="M0 0v476h366v75h-366v200h592v-476h-367v-75h366v-200h-591z" />
    <glyph glyph-name="three" unicode="3" horiz-adv-x="612" 
d="M547 751v-751h-547v200h322v75h-322v201h322v75h-322v200h547z" />
    <glyph glyph-name="four" unicode="4" horiz-adv-x="663" 
d="M365 476v275h225v-751h-225v275h-366v476h225v-275h141z" />
    <glyph glyph-name="five" unicode="5" horiz-adv-x="668" 
d="M1 751h591v-200h-366v-32l366 -115c0 -135 2 -270 2 -404h-593v200h367v37l-368 114c0 142 1 265 1 400z" />
    <glyph glyph-name="six" unicode="6" horiz-adv-x="635" 
d="M0 752h572v-199h-348v-75h348v-478h-572v752zM347 200v77h-123v-77h123z" />
    <glyph glyph-name="seven" unicode="7" horiz-adv-x="674" 
d="M373 551h-374v200h607v-200l-172 -195v-356h-224v362z" />
    <glyph glyph-name="eight" unicode="8" horiz-adv-x="635" 
d="M572 0h-571v751h571v-751zM225 275v-75h123v75h-123zM225 551v-75h123v75h-123z" />
    <glyph glyph-name="nine" unicode="9" horiz-adv-x="636" 
d="M573 0h-573v200h348v75h-348v476c193 1 382 0 573 0v-751zM225 551v-75h123v75h-123z" />
    <glyph glyph-name="parenright" unicode=")" horiz-adv-x="403" 
d="M275 751l59 -51v-650l-58 -50h-275v200h108v351h-108v200h274z" />
    <glyph glyph-name="colon" unicode=":" horiz-adv-x="244" 
d="M1 73v157h163v-157h-163zM1 455v157h163v-157h-163z" />
    <glyph glyph-name="semicolon" unicode=";" horiz-adv-x="301" 
d="M58 455v157h163v-157h-163zM252 219l-78 -176h-168l80 176h166z" />
    <glyph glyph-name="quotedbl" unicode="&#x22;" horiz-adv-x="432" 
d="M202 573v178h147v-178h-147zM0 573v178h147v-178h-147z" />
    <glyph glyph-name="question" unicode="?" horiz-adv-x="663" 
d="M225 201h-225v275h366v75h-366v200h592v-476h-367v-74zM0 0v159h225v-159h-225z" />
    <glyph glyph-name="less" unicode="&#x3c;" horiz-adv-x="426" 
d="M353 751v-259l-116 -118l116 -114v-265l-352 315l-1 136z" />
    <glyph glyph-name="greater" unicode="&#x3e;" horiz-adv-x="426" 
d="M0 492v259l353 -305l-1 -136l-352 -315v265l116 114z" />
    <glyph glyph-name="B" unicode="B" horiz-adv-x="736" 
d="M0 751h679v-325l-57 -50l57 -52v-242h-353v-12h353v-70h-679v667h362v23h-362v61zM224 201h233v75h-233v-75zM224 476h233v75h-233v-75z" />
    <glyph glyph-name="C" unicode="C" horiz-adv-x="629" 
d="M1 751h570h2v-278h-200v78h-148v-350h148v77h200v-196h-321v-12h321v-70h-2h-511l-59 57v610h340v23h-340v61z" />
    </font>
</defs>
</svg>
